Jump_normalized_Motion_pl09
version=1
nRows=14
nColumns=43
inDegrees=yes
endheader
time		pelvis_tilt		pelvis_list		pelvis_rotation		pelvis_tx		pelvis_ty		pelvis_tz		hip_flexion_r		hip_adduction_r		hip_rotation_r		knee_angle_r		ankle_angle_r		subtalar_angle_r		mtp_angle_r		hip_flexion_l		hip_adduction_l		hip_rotation_l		knee_angle_l		ankle_angle_l		subtalar_angle_l		mtp_angle_l		lumbar_extension		lumbar_bending		lumbar_rotation		neck_flexion		neck_lateral_bending		neck_rotation		arm_flex_r		arm_add_r		arm_rot_r		elbow_flex_r		pro_sup_r		wrist_flex_r		wrist_dev_r		hand_finger_flex_r		arm_flex_l		arm_add_l		arm_rot_l		elbow_flex_l		pro_sup_l		wrist_flex_l		wrist_dev_l		hand_finger_flex_l		
0.761667		0.225761		-24.644482		92.075175		-0.013565		1.841246		1.691583		61.886409		-7.743185		3.360897		-118.274199		22.667437		-5.136809		1.258823		63.356696		-1.181780		4.577973		-119.565165		25.883883		-8.107011		9.227479		-40.232417		0.664846		0.428168		34.162627		0.782593		-3.529888		138.023825		-7.210110		35.590014		53.690778		65.096993		-34.433631		-0.975458		29.628592		139.161981		-2.000329		23.007058		56.759599		114.511960		-26.353574		14.954605		74.110136		
0.765025		0.235038		-24.561158		92.036502		-0.013452		1.843975		1.685326		61.134524		-7.753942		3.303833		-117.766615		21.932414		-4.907393		1.264710		62.630311		-1.264046		4.641585		-119.124114		25.104162		-7.834164		9.301118		-40.041637		0.626847		0.514654		33.594213		0.847927		-3.561257		137.982644		-7.150596		35.396425		53.568839		65.127380		-34.368966		-1.030732		29.590830		139.150064		-1.942474		22.995436		56.725485		114.479613		-26.396404		14.896006		73.957500		
0.768384		0.289887		-24.110500		92.020655		-0.013316		1.847481		1.678674		59.921307		-7.740236		3.152837		-117.183462		21.205019		-4.834087		1.490210		61.473731		-1.392547		4.727690		-118.599608		24.383760		-7.673923		9.618044		-40.331446		0.630437		0.632934		33.217045		0.905870		-3.587794		138.014340		-7.024294		34.970288		53.374998		65.261415		-34.171451		-1.197241		29.498454		139.254914		-1.842080		22.927318		56.655282		114.379951		-26.492626		14.700875		73.497267		
0.771742		0.292619		-24.025496		91.978385		-0.013239		1.850119		1.672317		59.228846		-7.774283		3.113764		-116.703245		20.356262		-4.530772		1.493692		60.809997		-1.451132		4.802621		-118.191559		23.470540		-7.379788		9.632970		-40.124613		0.589431		0.729681		32.576981		0.966430		-3.613808		137.930907		-7.013878		34.852146		53.283298		65.278533		-34.142454		-1.197997		29.465194		139.154494		-1.804869		22.931543		56.686672		114.295925		-26.481364		14.660146		73.367254		
0.775101		0.338782		-23.355029		91.956113		-0.013113		1.854002		1.665343		57.811830		-7.748159		2.998716		-116.095627		19.402681		-4.426527		1.841704		59.441642		-1.565635		4.896604		-117.669032		22.522547		-7.344287		9.912651		-40.652039		0.599778		0.837292		32.235887		0.963991		-3.656949		137.932234		-6.859040		34.421973		53.091878		65.396666		-34.004519		-1.346529		29.350165		139.200337		-1.680873		22.756045		56.575049		114.000064		-26.508734		14.415498		72.793361		
0.778460		0.339882		-23.285023		91.930512		-0.013166		1.856605		1.658977		57.210627		-7.814911		2.988204		-115.654513		18.492218		-4.109268		1.847602		58.859668		-1.623606		4.920575		-117.233423		21.522932		-7.040988		9.893400		-40.431207		0.566927		0.964728		31.565139		1.050359		-3.669761		137.842090		-6.917354		34.394569		52.997794		65.414644		-33.970879		-1.322559		29.325457		139.043239		-1.653462		22.832252		56.671994		113.900913		-26.457940		14.365987		72.684151		
0.781818		0.345629		-23.030564		91.862387		-0.013066		1.859467		1.652375		56.434349		-7.825947		2.988712		-115.174990		17.328747		-3.791110		1.862779		58.100004		-1.700012		4.990129		-116.854366		20.318124		-6.812476		9.861523		-40.416404		0.516762		1.070211		30.936242		1.084746		-3.698371		137.711029		-6.892990		34.249997		52.916854		65.426975		-33.964982		-1.357403		29.282282		138.868410		-1.594046		22.761847		56.675930		113.717881		-26.458282		14.292296		72.496428		
0.785177		0.318778		-22.066480		91.771841		-0.012995		1.863777		1.645019		54.776918		-7.831883		2.919853		-114.552475		16.071638		-3.968685		2.758501		56.466165		-1.775158		4.937375		-116.318359		19.036547		-7.244379		10.293300		-41.265035		0.460453		1.193007		30.584264		1.097597		-3.771080		137.776370		-6.846333		34.115283		52.672648		65.678559		-33.652663		-1.497086		29.076676		138.890915		-1.591447		22.809060		56.587640		113.003704		-26.353240		13.790059		71.384609		
0.788535		0.319765		-21.973293		91.730172		-0.013024		1.866203		1.638644		54.294353		-7.884587		2.950809		-114.154437		14.809139		-3.568582		2.743555		56.001041		-1.841554		4.956877		-115.954060		17.766681		-6.934499		10.229269		-41.077865		0.424087		1.321487		29.955999		1.119327		-3.780438		137.606506		-6.864630		33.992306		52.611992		65.670458		-33.685435		-1.509436		29.021920		138.684148		-1.514078		22.772478		56.607767		112.852509		-26.346522		13.784555		71.243561		
0.791894		0.314093		-21.730826		91.662988		-0.012983		1.868916		1.632064		53.658275		-7.910643		2.998177		-113.728748		13.392763		-3.285773		2.738656		55.382158		-1.894088		4.965845		-115.603536		16.333901		-6.803837		10.146078		-41.050716		0.366241		1.425137		29.302592		1.152172		-3.820352		137.426220		-6.878079		33.917820		52.544512		65.702017		-33.694392		-1.549921		28.963188		138.440930		-1.460913		22.729648		56.619338		112.644672		-26.376827		13.755469		71.037226		
0.795253		0.200923		-20.984031		91.535397		-0.013021		1.872677		1.625024		52.452941		-7.972061		3.053233		-113.193947		11.683002		-3.585307		3.231547		54.150464		-1.858208		4.773852		-115.110389		14.627683		-7.654280		10.234315		-41.669677		0.238006		1.520751		28.979025		1.089102		-3.923649		137.412840		-6.840164		33.792371		52.348720		65.924766		-33.588393		-1.762294		28.758839		138.362168		-1.371333		22.663477		56.518135		111.997374		-26.543311		13.545912		70.187297		
0.798611		0.159438		-20.771736		91.505403		-0.013159		1.875023		1.618400		51.921196		-8.104091		3.111241		-112.836965		10.308777		-3.170177		3.239210		53.648952		-1.876067		4.739014		-114.795630		13.150135		-7.357318		10.153376		-41.572823		0.188952		1.584405		28.193568		1.177300		-3.940653		137.210012		-6.945658		33.899396		52.290504		65.970918		-33.521822		-1.729269		28.726516		138.054617		-1.416427		22.837965		56.605180		111.836531		-26.510252		13.525430		70.028003		
0.801970		0.087160		-20.444473		91.482484		-0.013359		1.877574		1.611708		51.305711		-8.233270		3.200700		-112.461051		8.689848		-2.848130		3.241909		53.048342		-1.836424		4.677397		-114.443430		11.470026		-7.276838		10.049686		-41.630960		0.139411		1.626122		27.535643		1.213201		-3.972124		137.029463		-7.003416		33.941280		52.206048		66.036732		-33.474224		-1.762482		28.668894		137.769736		-1.406417		22.897693		56.629214		111.600093		-26.544796		13.497282		69.804041		
0.805328		-0.192353		-19.592357		91.356719		-0.013687		1.881212		1.604590		50.118693		-8.505921		3.368584		-111.975279		6.679863		-3.194474		3.848069		51.806309		-1.567490		4.371098		-113.962737		9.316158		-8.581861		10.134057		-42.383462		-0.071135		1.528967		27.258690		1.136739		-4.063932		137.051803		-6.993427		33.955929		51.976988		66.301601		-33.259785		-2.014326		28.414163		137.692483		-1.384653		22.948888		56.529346		110.826692		-26.754360		13.284672		68.910724		
